<svg xmlns="http://www.w3.org/2000/svg" viewBox="0 0 64 64" role="img" aria-label="TeleChat favicon">
	<defs>
		<linearGradient id="bg" x1="0" y1="0" x2="1" y2="1">
			<stop offset="0%" stop-color="#0ea5e9" />
			<stop offset="100%" stop-color="#2563eb" />
		</linearGradient>
	</defs>
	<rect x="4" y="4" width="56" height="56" rx="16" fill="url(#bg)" />
	<path fill="#ffffff" d="M18 20c0-2.2 1.8-4 4-4h20c2.2 0 4 1.8 4 4v14c0 2.2-1.8 4-4 4H31l-8.5 7.2c-1.3 1.1-3.2.2-3.2-1.5V38.5c-1.8-.9-3.3-2.4-3.3-4.5V20z" />
	<circle cx="48" cy="16" r="6" fill="#ef4444" />
	<rect x="24" y="24" width="16" height="3" rx="1.5" fill="#1d4ed8" />
	<rect x="24" y="30" width="10" height="3" rx="1.5" fill="#1d4ed8" />
</svg>
